<svg xmlns="http://www.w3.org/2000/svg" width="200" height="200" viewBox="0 0 200 200"><defs><filter id="sk" x="-20%" y="-20%" width="140%" height="140%" color-interpolation-filters="sRGB"><feGaussianBlur in="SourceAlpha" stdDeviation="8"/><feComponentTransfer result="cut"><feFuncA type="linear" slope="25" intercept="-1.5"/></feComponentTransfer><feGaussianBlur in="cut" stdDeviation="3"/><feOffset dx="2" dy="4"/><feComponentTransfer result="sh"><feFuncA type="linear" slope=".35"/></feComponentTransfer><feFlood flood-color="#FFFFFF"/><feComposite in2="cut" operator="in" result="wb"/><feTurbulence type="fractalNoise" baseFrequency=".9" numOctaves="3" seed="22"/><feColorMatrix type="matrix" values="0 0 0 0 0  0 0 0 0 0  0 0 0 0 0  .5 0 0 0 -.24"/><feComposite in2="cut" operator="in" result="grain"/><feGaussianBlur in="cut" stdDeviation="4" result="bump"/><feSpecularLighting in="bump" surfaceScale="4" specularConstant=".7" specularExponent="20" lighting-color="#fff"><feDistantLight azimuth="225" elevation="40"/></feSpecularLighting><feComposite in2="cut" operator="in" result="gloss"/><feMerge><feMergeNode in="sh"/><feMergeNode in="wb"/><feMergeNode in="SourceGraphic"/><feMergeNode in="grain"/><feMergeNode in="gloss"/></feMerge></filter></defs><g filter="url(#sk)"><g transform="translate(22 22) scale(.78)"><rect x="45" y="8" width="110" height="184" rx="14" fill="#E5E7EB" stroke="#0B0B0B" stroke-width="5"/><rect x="57" y="22" width="86" height="72" rx="6" fill="#6B7280"/><rect x="70" y="32" width="60" height="52" fill="#BFDBFE"/><rect x="64" y="118" width="12" height="36" fill="#0B0B0B"/><rect x="52" y="130" width="36" height="12" fill="#0B0B0B"/><circle cx="124" cy="144" r="8" fill="#0B0B0B"/><circle cx="141" cy="131" r="8" fill="#0B0B0B"/><g fill="#6B7280"><rect x="84" y="168" width="14" height="5" rx="2.5" transform="rotate(-25 91 170)"/><rect x="102" y="168" width="14" height="5" rx="2.5" transform="rotate(-25 109 170)"/></g><path d="M124 180l8-10M131 182l8-10M138 184l8-10" stroke="#0B0B0B" stroke-width="3" stroke-linecap="round"/></g></g></svg>
