<svg xmlns="http://www.w3.org/2000/svg" width="200" height="200" viewBox="0 0 200 200"><defs><filter id="sk" x="-20%" y="-20%" width="140%" height="140%" color-interpolation-filters="sRGB"><feGaussianBlur in="SourceAlpha" stdDeviation="8"/><feComponentTransfer result="cut"><feFuncA type="linear" slope="25" intercept="-1.5"/></feComponentTransfer><feGaussianBlur in="cut" stdDeviation="3"/><feOffset dx="2" dy="4"/><feComponentTransfer result="sh"><feFuncA type="linear" slope=".35"/></feComponentTransfer><feFlood flood-color="#FFFFFF"/><feComposite in2="cut" operator="in" result="wb"/><feTurbulence type="fractalNoise" baseFrequency=".9" numOctaves="3" seed="21"/><feColorMatrix type="matrix" values="0 0 0 0 0  0 0 0 0 0  0 0 0 0 0  .5 0 0 0 -.24"/><feComposite in2="cut" operator="in" result="grain"/><feGaussianBlur in="cut" stdDeviation="4" result="bump"/><feSpecularLighting in="bump" surfaceScale="4" specularConstant=".7" specularExponent="20" lighting-color="#fff"><feDistantLight azimuth="225" elevation="40"/></feSpecularLighting><feComposite in2="cut" operator="in" result="gloss"/><feMerge><feMergeNode in="sh"/><feMergeNode in="wb"/><feMergeNode in="SourceGraphic"/><feMergeNode in="grain"/><feMergeNode in="gloss"/></feMerge></filter></defs><g filter="url(#sk)"><g transform="translate(22 22) scale(.78)"><g shape-rendering="crispEdges"><rect x="40.00" y="10.00" width="10.00" height="10.00" fill="#0B0B0B" stroke="#0B0B0B" stroke-width=".8"/><rect x="40.00" y="20.00" width="20.00" height="10.00" fill="#0B0B0B" stroke="#0B0B0B" stroke-width=".8"/><rect x="40.00" y="30.00" width="10.00" height="10.00" fill="#0B0B0B" stroke="#0B0B0B" stroke-width=".8"/><rect x="50.00" y="30.00" width="10.00" height="10.00" fill="#F7F7F7" stroke="#F7F7F7" stroke-width=".8"/><rect x="60.00" y="30.00" width="10.00" height="10.00" fill="#0B0B0B" stroke="#0B0B0B" stroke-width=".8"/><rect x="40.00" y="40.00" width="10.00" height="10.00" fill="#0B0B0B" stroke="#0B0B0B" stroke-width=".8"/><rect x="50.00" y="40.00" width="20.00" height="10.00" fill="#F7F7F7" stroke="#F7F7F7" stroke-width=".8"/><rect x="70.00" y="40.00" width="10.00" height="10.00" fill="#0B0B0B" stroke="#0B0B0B" stroke-width=".8"/><rect x="40.00" y="50.00" width="10.00" height="10.00" fill="#0B0B0B" stroke="#0B0B0B" stroke-width=".8"/><rect x="50.00" y="50.00" width="30.00" height="10.00" fill="#F7F7F7" stroke="#F7F7F7" stroke-width=".8"/><rect x="80.00" y="50.00" width="10.00" height="10.00" fill="#0B0B0B" stroke="#0B0B0B" stroke-width=".8"/><rect x="40.00" y="60.00" width="10.00" height="10.00" fill="#0B0B0B" stroke="#0B0B0B" stroke-width=".8"/><rect x="50.00" y="60.00" width="40.00" height="10.00" fill="#F7F7F7" stroke="#F7F7F7" stroke-width=".8"/><rect x="90.00" y="60.00" width="10.00" height="10.00" fill="#0B0B0B" stroke="#0B0B0B" stroke-width=".8"/><rect x="40.00" y="70.00" width="10.00" height="10.00" fill="#0B0B0B" stroke="#0B0B0B" stroke-width=".8"/><rect x="50.00" y="70.00" width="50.00" height="10.00" fill="#F7F7F7" stroke="#F7F7F7" stroke-width=".8"/><rect x="100.00" y="70.00" width="10.00" height="10.00" fill="#0B0B0B" stroke="#0B0B0B" stroke-width=".8"/><rect x="40.00" y="80.00" width="10.00" height="10.00" fill="#0B0B0B" stroke="#0B0B0B" stroke-width=".8"/><rect x="50.00" y="80.00" width="60.00" height="10.00" fill="#F7F7F7" stroke="#F7F7F7" stroke-width=".8"/><rect x="110.00" y="80.00" width="10.00" height="10.00" fill="#0B0B0B" stroke="#0B0B0B" stroke-width=".8"/><rect x="40.00" y="90.00" width="10.00" height="10.00" fill="#0B0B0B" stroke="#0B0B0B" stroke-width=".8"/><rect x="50.00" y="90.00" width="70.00" height="10.00" fill="#F7F7F7" stroke="#F7F7F7" stroke-width=".8"/><rect x="120.00" y="90.00" width="10.00" height="10.00" fill="#0B0B0B" stroke="#0B0B0B" stroke-width=".8"/><rect x="40.00" y="100.00" width="10.00" height="10.00" fill="#0B0B0B" stroke="#0B0B0B" stroke-width=".8"/><rect x="50.00" y="100.00" width="80.00" height="10.00" fill="#F7F7F7" stroke="#F7F7F7" stroke-width=".8"/><rect x="130.00" y="100.00" width="10.00" height="10.00" fill="#0B0B0B" stroke="#0B0B0B" stroke-width=".8"/><rect x="40.00" y="110.00" width="10.00" height="10.00" fill="#0B0B0B" stroke="#0B0B0B" stroke-width=".8"/><rect x="50.00" y="110.00" width="90.00" height="10.00" fill="#F7F7F7" stroke="#F7F7F7" stroke-width=".8"/><rect x="140.00" y="110.00" width="10.00" height="10.00" fill="#0B0B0B" stroke="#0B0B0B" stroke-width=".8"/><rect x="40.00" y="120.00" width="10.00" height="10.00" fill="#0B0B0B" stroke="#0B0B0B" stroke-width=".8"/><rect x="50.00" y="120.00" width="60.00" height="10.00" fill="#F7F7F7" stroke="#F7F7F7" stroke-width=".8"/><rect x="110.00" y="120.00" width="50.00" height="10.00" fill="#0B0B0B" stroke="#0B0B0B" stroke-width=".8"/><rect x="40.00" y="130.00" width="10.00" height="10.00" fill="#0B0B0B" stroke="#0B0B0B" stroke-width=".8"/><rect x="50.00" y="130.00" width="30.00" height="10.00" fill="#F7F7F7" stroke="#F7F7F7" stroke-width=".8"/><rect x="80.00" y="130.00" width="10.00" height="10.00" fill="#0B0B0B" stroke="#0B0B0B" stroke-width=".8"/><rect x="90.00" y="130.00" width="20.00" height="10.00" fill="#F7F7F7" stroke="#F7F7F7" stroke-width=".8"/><rect x="110.00" y="130.00" width="10.00" height="10.00" fill="#0B0B0B" stroke="#0B0B0B" stroke-width=".8"/><rect x="40.00" y="140.00" width="10.00" height="10.00" fill="#0B0B0B" stroke="#0B0B0B" stroke-width=".8"/><rect x="50.00" y="140.00" width="20.00" height="10.00" fill="#F7F7F7" stroke="#F7F7F7" stroke-width=".8"/><rect x="70.00" y="140.00" width="10.00" height="10.00" fill="#0B0B0B" stroke="#0B0B0B" stroke-width=".8"/><rect x="90.00" y="140.00" width="10.00" height="10.00" fill="#0B0B0B" stroke="#0B0B0B" stroke-width=".8"/><rect x="100.00" y="140.00" width="20.00" height="10.00" fill="#F7F7F7" stroke="#F7F7F7" stroke-width=".8"/><rect x="120.00" y="140.00" width="10.00" height="10.00" fill="#0B0B0B" stroke="#0B0B0B" stroke-width=".8"/><rect x="40.00" y="150.00" width="10.00" height="10.00" fill="#0B0B0B" stroke="#0B0B0B" stroke-width=".8"/><rect x="50.00" y="150.00" width="10.00" height="10.00" fill="#F7F7F7" stroke="#F7F7F7" stroke-width=".8"/><rect x="60.00" y="150.00" width="10.00" height="10.00" fill="#0B0B0B" stroke="#0B0B0B" stroke-width=".8"/><rect x="90.00" y="150.00" width="10.00" height="10.00" fill="#0B0B0B" stroke="#0B0B0B" stroke-width=".8"/><rect x="100.00" y="150.00" width="20.00" height="10.00" fill="#F7F7F7" stroke="#F7F7F7" stroke-width=".8"/><rect x="120.00" y="150.00" width="10.00" height="10.00" fill="#0B0B0B" stroke="#0B0B0B" stroke-width=".8"/><rect x="40.00" y="160.00" width="20.00" height="10.00" fill="#0B0B0B" stroke="#0B0B0B" stroke-width=".8"/><rect x="100.00" y="160.00" width="10.00" height="10.00" fill="#0B0B0B" stroke="#0B0B0B" stroke-width=".8"/><rect x="110.00" y="160.00" width="20.00" height="10.00" fill="#F7F7F7" stroke="#F7F7F7" stroke-width=".8"/><rect x="130.00" y="160.00" width="10.00" height="10.00" fill="#0B0B0B" stroke="#0B0B0B" stroke-width=".8"/><rect x="40.00" y="170.00" width="10.00" height="10.00" fill="#0B0B0B" stroke="#0B0B0B" stroke-width=".8"/><rect x="100.00" y="170.00" width="10.00" height="10.00" fill="#0B0B0B" stroke="#0B0B0B" stroke-width=".8"/><rect x="110.00" y="170.00" width="20.00" height="10.00" fill="#F7F7F7" stroke="#F7F7F7" stroke-width=".8"/><rect x="130.00" y="170.00" width="10.00" height="10.00" fill="#0B0B0B" stroke="#0B0B0B" stroke-width=".8"/><rect x="110.00" y="180.00" width="20.00" height="10.00" fill="#0B0B0B" stroke="#0B0B0B" stroke-width=".8"/></g></g></g></svg>
